<!DOCTYPE svg PUBLIC "-//W3C//DTD SVG 1.1//EN" "http://www.w3.org/Graphics/SVG/1.1/DTD/svg11.dtd">
<!-- Uploaded to: SVG Repo, www.svgrepo.com, Transformed by: SVG Repo Mixer Tools -->
<svg width="64px" height="64px" viewBox="-2.4 -2.4 20.80 20.80" fill="none" xmlns="http://www.w3.org/2000/svg" stroke="">
<g id="SVGRepo_bgCarrier" stroke-width="0" transform="translate(0,0), scale(1)">
<rect x="-2.4" y="-2.4" width="20.80" height="20.80" rx="2.4960000000000004" fill="#1e3a8a" strokewidth="0"/>
</g>
<g id="SVGRepo_tracerCarrier" stroke-linecap="round" stroke-linejoin="round"/>
<g id="SVGRepo_iconCarrier"> <path d="M8 0H4V6.41604C2.2341 7.1876 1 8.94968 1 11C1 13.7614 3.23858 16 6 16C8.76142 16 11 13.7614 11 11C11 8.94968 9.7659 7.1876 8 6.41604V0Z" fill="#fff"/> <path d="M11 4H16V6H11V4Z" fill="#fff"/> <path d="M16 0H13V2H16V0Z" fill="#fff"/> <path d="M13 8H16V10H13V8Z" fill="#fff"/> <path d="M16 12H13V14H16V12Z" fill="#fff"/> </g>
</svg>